<?xml version="1.0" encoding="UTF-8" standalone="no"?>
<!-- Created with Inkscape (http://www.inkscape.org/) -->
<svg xmlns:dc="http://purl.org/dc/elements/1.1/" xmlns:cc="http://creativecommons.org/ns#" xmlns:rdf="http://www.w3.org/1999/02/22-rdf-syntax-ns#" xmlns:svg="http://www.w3.org/2000/svg" xmlns="http://www.w3.org/2000/svg" xmlns:sodipodi="http://sodipodi.sourceforge.net/DTD/sodipodi-0.dtd" xmlns:inkscape="http://www.inkscape.org/namespaces/inkscape" id="svg2" sodipodi:version="0.32" inkscape:version="0.46" width="799.24872" height="227" version="1.0" sodipodi:docname="Pfeil.svg" inkscape:output_extension="org.inkscape.output.svg.inkscape">
  <metadata id="metadata7">
    <rdf:RDF>
      <cc:Work rdf:about="">
        <dc:format>image/svg+xml</dc:format>
        <dc:type rdf:resource="http://purl.org/dc/dcmitype/StillImage"/>
      </cc:Work>
    </rdf:RDF>
  </metadata>
  <defs id="defs5">
    <inkscape:perspective sodipodi:type="inkscape:persp3d" inkscape:vp_x="0 : 526.18109 : 1" inkscape:vp_y="0 : 1000 : 0" inkscape:vp_z="744.09448 : 526.18109 : 1" inkscape:persp3d-origin="372.04724 : 350.78739 : 1" id="perspective9"/>
  </defs>
  <sodipodi:namedview inkscape:window-height="712" inkscape:window-width="1024" inkscape:pageshadow="2" inkscape:pageopacity="0.0" guidetolerance="10.0" gridtolerance="10.0" objecttolerance="10.0" borderopacity="1.0" bordercolor="#666666" pagecolor="#ffffff" id="base" showgrid="false" inkscape:zoom="0.68" inkscape:cx="400" inkscape:cy="213.5" inkscape:window-x="-4" inkscape:window-y="-4" inkscape:current-layer="svg2"/>
  <path style="fill:#000000" d="M 541.35812,213.57353 C 547.68742,199.10043 553.14203,183.62979 556.36162,171.0199 C 558.88836,161.12366 562.41176,140.85975 562.41176,136.22416 L 562.41176,132.82353 L -0.588235,132.82353 L -0.588235,93.82353 L 562.41176,93.82353 L 562.41176,90.4229 C 562.41176,85.78731 558.88836,65.5234 556.36162,55.62716 C 553.14203,43.01727 547.68742,27.54663 541.35812,13.07353 C 538.17119,5.78603 535.64423,-0.17647 535.74266,-0.17647 C 537.03799,-0.17647 798.47954,112.57173 798.6604,113.20834 C 798.83833,113.83467 537.37846,226.82353 535.7512,226.82353 C 535.64808,226.82353 538.17119,220.86103 541.35812,213.57353 z" id="path2384" sodipodi:nodetypes="csccccccsssssc"/>
</svg>